<svg width="617" height="190" viewBox="0 0 617 190" fill="none" xmlns="http://www.w3.org/2000/svg">
<path d="M0 16.9717V155.965L16.8062 165.328V114.858V26.414L0 16.9717Z" fill="#BAFE54"/>
<path d="M95.4632 13.9309L80.7781 8.31189L59.3744 37.6967L67.3329 41.0575V49.2995L95.4632 13.9309Z" fill="#BAFE54"/>
<path d="M79.7794 145.083L93.5427 148.857L72.3376 122.437L67.1363 129.239L79.7794 145.083Z" fill="#BAFE54"/>
<path d="M23.5273 28.334V167.968L40.3335 177.17V122.219V96.913V36.816L23.5273 28.334Z" fill="#BAFE54"/>
<path d="M118.51 21.2122L104.305 15.6732L67.4301 62.5023L67.9824 85.6711L118.51 21.2122Z" fill="#BAFE54"/>
<path d="M103.867 151.324L118.43 155.005L80.9813 110.914L75.0599 119.556L103.867 151.324Z" fill="#BAFE54"/>
<path d="M47.0508 178.23V37.3955L63.857 44.2578V104.275L127.829 23.035L141.394 28.3339L91.5058 93.0328L148.595 162.206L126.43 156.365L81.2053 106.692L63.857 129.581V187.012L47.0508 178.23Z" fill="#BAFE54"/>
<path d="M255.624 140L234.76 106.976H225.288L252.936 69.344H277.256L251.016 104.8V93.536L281.608 140H255.624ZM205.448 140V46.56H228.744V140H205.448ZM322.273 142.56C316.044 142.56 310.497 141.621 305.633 139.744C300.769 137.867 296.63 135.264 293.217 131.936C289.889 128.608 287.329 124.768 285.537 120.416C283.83 116.064 282.977 111.413 282.977 106.464V103.392C282.977 98.272 283.873 93.4933 285.665 89.056C287.542 84.6187 290.188 80.736 293.601 77.408C297.014 74.08 301.153 71.4773 306.017 69.6C310.881 67.7227 316.3 66.784 322.273 66.784C328.332 66.784 333.75 67.7227 338.529 69.6C343.393 71.4773 347.532 74.08 350.945 77.408C354.358 80.736 356.961 84.6187 358.753 89.056C360.63 93.4933 361.569 98.272 361.569 103.392V106.464C361.569 111.413 360.673 116.064 358.881 120.416C357.174 124.768 354.614 128.608 351.201 131.936C347.873 135.264 343.777 137.867 338.913 139.744C334.049 141.621 328.502 142.56 322.273 142.56ZM322.273 123.104C325.857 123.104 328.801 122.336 331.105 120.8C333.494 119.264 335.286 117.131 336.481 114.4C337.676 111.584 338.273 108.427 338.273 104.928C338.273 101.259 337.633 98.0587 336.353 95.328C335.158 92.512 333.366 90.2933 330.977 88.672C328.588 87.0507 325.686 86.24 322.273 86.24C318.86 86.24 315.958 87.0507 313.569 88.672C311.18 90.2933 309.345 92.512 308.065 95.328C306.87 98.0587 306.273 101.259 306.273 104.928C306.273 108.427 306.87 111.584 308.065 114.4C309.26 117.131 311.052 119.264 313.441 120.8C315.83 122.336 318.774 123.104 322.273 123.104ZM375.603 140V68.832C375.603 60.5547 377.992 54.4107 382.771 50.4C387.55 46.304 394.632 44.256 404.019 44.256H410.675V61.408H403.507C401.459 61.408 399.88 61.9627 398.771 63.072C397.662 64.1813 397.107 65.76 397.107 67.808V140H375.603ZM367.923 87.008V70.112H410.675V87.008H367.923ZM423.475 140V69.344H446.771V140H423.475ZM415.795 86.24V69.344H446.771V86.24H415.795ZM433.075 63.712C428.808 63.712 425.651 62.6453 423.603 60.512C421.64 58.2933 420.659 55.4773 420.659 52.064C420.659 48.6507 421.64 45.8773 423.603 43.744C425.651 41.5253 428.766 40.416 432.947 40.416C437.214 40.416 440.328 41.5253 442.291 43.744C444.254 45.8773 445.235 48.6507 445.235 52.064C445.235 55.4773 444.254 58.2933 442.291 60.512C440.328 62.6453 437.256 63.712 433.075 63.712Z" fill="white"/>
<rect x="478" y="40" width="138" height="62" rx="13" stroke="white" stroke-width="2"/>
<path d="M499.064 87.864C497.208 87.864 495.512 87.528 493.976 86.856C492.472 86.184 491.16 85.256 490.04 84.072C488.952 82.856 488.104 81.432 487.496 79.8C486.92 78.168 486.632 76.392 486.632 74.472V73.32C486.632 71.4 486.904 69.624 487.448 67.992C488.024 66.328 488.84 64.888 489.896 63.672C490.952 62.424 492.232 61.464 493.736 60.792C495.24 60.088 496.92 59.736 498.776 59.736C500.92 59.736 502.744 60.216 504.248 61.176C505.784 62.104 506.952 63.464 507.752 65.256C508.584 67.048 509.032 69.224 509.096 71.784L507.08 70.296V51.96H515.816V87H508.904V76.248H509.864C509.8 78.616 509.32 80.68 508.424 82.44C507.528 84.168 506.28 85.512 504.68 86.472C503.112 87.4 501.24 87.864 499.064 87.864ZM501.416 80.664C502.472 80.664 503.432 80.424 504.296 79.944C505.192 79.464 505.912 78.76 506.456 77.832C507 76.904 507.272 75.784 507.272 74.472V72.84C507.272 71.56 506.984 70.488 506.408 69.624C505.864 68.76 505.144 68.104 504.248 67.656C503.384 67.176 502.44 66.936 501.416 66.936C500.264 66.936 499.224 67.24 498.296 67.848C497.4 68.424 496.68 69.24 496.136 70.296C495.624 71.32 495.368 72.52 495.368 73.896C495.368 75.272 495.624 76.472 496.136 77.496C496.68 78.488 497.4 79.272 498.296 79.848C499.224 80.392 500.264 80.664 501.416 80.664ZM535.352 87.96C533.016 87.96 530.936 87.608 529.112 86.904C527.288 86.2 525.736 85.224 524.456 83.976C523.208 82.728 522.248 81.288 521.576 79.656C520.936 78.024 520.616 76.28 520.616 74.424V73.272C520.616 71.352 520.952 69.56 521.624 67.896C522.328 66.232 523.32 64.776 524.6 63.528C525.88 62.28 527.432 61.304 529.256 60.6C531.08 59.896 533.112 59.544 535.352 59.544C537.624 59.544 539.656 59.896 541.448 60.6C543.272 61.304 544.824 62.28 546.104 63.528C547.384 64.776 548.36 66.232 549.032 67.896C549.736 69.56 550.088 71.352 550.088 73.272V74.424C550.088 76.28 549.752 78.024 549.08 79.656C548.44 81.288 547.48 82.728 546.2 83.976C544.952 85.224 543.416 86.2 541.592 86.904C539.768 87.608 537.688 87.96 535.352 87.96ZM535.352 80.664C536.696 80.664 537.8 80.376 538.664 79.8C539.56 79.224 540.232 78.424 540.68 77.4C541.128 76.344 541.352 75.16 541.352 73.848C541.352 72.472 541.112 71.272 540.632 70.248C540.184 69.192 539.512 68.36 538.616 67.752C537.72 67.144 536.632 66.84 535.352 66.84C534.072 66.84 532.984 67.144 532.088 67.752C531.192 68.36 530.504 69.192 530.024 70.248C529.576 71.272 529.352 72.472 529.352 73.848C529.352 75.16 529.576 76.344 530.024 77.4C530.472 78.424 531.144 79.224 532.04 79.8C532.936 80.376 534.04 80.664 535.352 80.664ZM566.967 87.96C564.663 87.96 562.663 87.592 560.967 86.856C559.271 86.088 557.847 85.064 556.695 83.784C555.575 82.504 554.727 81.048 554.151 79.416C553.607 77.784 553.335 76.088 553.335 74.328V73.368C553.335 71.512 553.623 69.752 554.199 68.088C554.807 66.424 555.687 64.952 556.839 63.672C557.991 62.392 559.415 61.384 561.111 60.648C562.807 59.912 564.759 59.544 566.967 59.544C569.399 59.544 571.543 60.024 573.399 60.984C575.255 61.944 576.727 63.272 577.815 64.968C578.935 66.632 579.559 68.552 579.687 70.728H571.143C571.047 69.672 570.647 68.776 569.943 68.04C569.271 67.304 568.279 66.936 566.967 66.936C565.847 66.936 564.919 67.224 564.183 67.8C563.479 68.376 562.951 69.176 562.599 70.2C562.247 71.224 562.071 72.44 562.071 73.848C562.071 75.16 562.215 76.328 562.503 77.352C562.823 78.376 563.335 79.176 564.039 79.752C564.775 80.296 565.751 80.568 566.967 80.568C567.863 80.568 568.615 80.408 569.223 80.088C569.831 79.768 570.311 79.32 570.663 78.744C571.015 78.136 571.239 77.432 571.335 76.632H579.879C579.751 78.872 579.111 80.84 577.959 82.536C576.839 84.232 575.335 85.56 573.447 86.52C571.559 87.48 569.399 87.96 566.967 87.96ZM594.821 87.864C590.981 87.864 587.957 87.08 585.749 85.512C583.541 83.912 582.357 81.672 582.197 78.792H589.877C590.005 79.592 590.501 80.28 591.365 80.856C592.229 81.432 593.445 81.72 595.013 81.72C596.133 81.72 597.093 81.56 597.893 81.24C598.725 80.888 599.141 80.328 599.141 79.56C599.141 78.888 598.821 78.344 598.181 77.928C597.541 77.48 596.373 77.176 594.677 77.016L592.853 76.824C589.461 76.472 586.965 75.544 585.365 74.04C583.765 72.536 582.965 70.648 582.965 68.376C582.965 66.424 583.445 64.824 584.405 63.576C585.365 62.296 586.693 61.336 588.389 60.696C590.085 60.056 592.021 59.736 594.197 59.736C597.749 59.736 600.613 60.52 602.789 62.088C604.965 63.624 606.117 65.848 606.245 68.76H598.565C598.437 67.96 598.005 67.288 597.269 66.744C596.533 66.168 595.477 65.88 594.101 65.88C593.109 65.88 592.293 66.056 591.653 66.408C591.045 66.76 590.741 67.256 590.741 67.896C590.741 68.568 591.029 69.064 591.605 69.384C592.213 69.704 593.173 69.944 594.485 70.104L596.309 70.296C599.701 70.648 602.309 71.592 604.133 73.128C605.989 74.632 606.917 76.616 606.917 79.08C606.917 80.904 606.421 82.472 605.429 83.784C604.469 85.096 603.077 86.104 601.253 86.808C599.461 87.512 597.317 87.864 594.821 87.864Z" fill="white"/>
</svg>
