<svg width="407" height="171" viewBox="0 0 407 171" fill="none" xmlns="http://www.w3.org/2000/svg">
<path d="M0.181641 15.7617V140.27L15.2363 148.656V103.446V24.22L0.181641 15.7617Z" fill="#BAFE54"/>
<path d="M85.6959 13.0379L72.5412 8.00444L53.3682 34.3268L60.4973 37.3374V44.7204L85.6959 13.0379Z" fill="#BAFE54"/>
<path d="M71.6466 130.521L83.9756 133.902L64.9804 110.236L60.3212 116.329L71.6466 130.521Z" fill="#BAFE54"/>
<path d="M21.2549 25.9414V151.023L36.3096 159.266V110.042V87.3733V33.5395L21.2549 25.9414Z" fill="#BAFE54"/>
<path d="M106.339 19.5619L93.6145 14.6001L60.5822 56.5488L61.0769 77.303L106.339 19.5619Z" fill="#BAFE54"/>
<path d="M93.2216 136.114L106.267 139.411L72.7211 99.9152L67.4168 107.657L93.2216 136.114Z" fill="#BAFE54"/>
<path d="M42.3301 160.211V34.0547L57.3848 40.2018V93.9639L114.69 21.1908L126.841 25.9375L82.1521 83.8936L133.292 145.858L113.437 140.625L72.9251 96.1292L57.3848 116.633V168.079L42.3301 160.211Z" fill="#BAFE54"/>
<path d="M218.64 139.859L199.654 109.808H191.034L216.194 75.5624H238.325L214.447 107.827V97.5771L242.285 139.859H218.64ZM172.98 139.859V54.829H194.179V139.859H172.98ZM279.29 142.189C273.622 142.189 268.574 141.335 264.148 139.626C259.722 137.918 255.956 135.55 252.849 132.521C249.821 129.493 247.491 125.998 245.861 122.038C244.308 118.078 243.531 113.846 243.531 109.342V106.546C243.531 101.887 244.346 97.5383 245.977 93.5003C247.686 89.4624 250.093 85.9291 253.199 82.9007C256.305 79.8722 260.071 77.5037 264.497 75.7954C268.924 74.087 273.855 73.2328 279.29 73.2328C284.804 73.2328 289.735 74.087 294.083 75.7954C298.51 77.5037 302.276 79.8722 305.382 82.9007C308.488 85.9291 310.857 89.4624 312.487 93.5003C314.196 97.5383 315.05 101.887 315.05 106.546V109.342C315.05 113.846 314.234 118.078 312.604 122.038C311.051 125.998 308.721 129.493 305.615 132.521C302.586 135.55 298.859 137.918 294.433 139.626C290.007 141.335 284.959 142.189 279.29 142.189ZM279.29 124.484C282.552 124.484 285.231 123.785 287.328 122.387C289.502 120.99 291.133 119.048 292.22 116.563C293.307 114.001 293.85 111.128 293.85 107.944C293.85 104.605 293.268 101.693 292.103 99.2079C291.016 96.6453 289.385 94.6263 287.211 93.1509C285.037 91.6755 282.397 90.9378 279.29 90.9378C276.184 90.9378 273.544 91.6755 271.37 93.1509C269.195 94.6263 267.526 96.6453 266.361 99.2079C265.274 101.693 264.73 104.605 264.73 107.944C264.73 111.128 265.274 114.001 266.361 116.563C267.448 119.048 269.079 120.99 271.253 122.387C273.428 123.785 276.107 124.484 279.29 124.484ZM327.821 139.859V75.0965C327.821 67.5641 329.995 61.9731 334.344 58.3234C338.692 54.596 345.137 52.7323 353.679 52.7323H359.736V68.3407H353.213C351.35 68.3407 349.913 68.8454 348.904 69.8549C347.894 70.8644 347.389 72.301 347.389 74.1647V139.859H327.821ZM320.832 91.6366V76.2613H359.736V91.6366H320.832ZM371.384 139.859V75.5624H392.584V139.859H371.384ZM364.395 90.9378V75.5624H392.584V90.9378H364.395ZM380.12 70.4373C376.238 70.4373 373.364 69.4666 371.501 67.5253C369.715 65.5063 368.822 62.9437 368.822 59.8376C368.822 56.7315 369.715 54.2077 371.501 52.2664C373.364 50.2474 376.199 49.2379 380.004 49.2379C383.886 49.2379 386.721 50.2474 388.507 52.2664C390.293 54.2077 391.186 56.7315 391.186 59.8376C391.186 62.9437 390.293 65.5063 388.507 67.5253C386.721 69.4666 383.925 70.4373 380.12 70.4373Z" fill="black"/>
</svg>
