<svg width="407" height="171" viewBox="0 0 407 171" fill="none" xmlns="http://www.w3.org/2000/svg">
<path d="M0.761719 15.5039V140.012L15.8164 148.399V103.189V23.9621L0.761719 15.5039Z" fill="#BAFE54"/>
<path d="M86.276 12.7801L73.1213 7.74662L53.9483 34.069L61.0773 37.0796V44.4626L86.276 12.7801Z" fill="#BAFE54"/>
<path d="M72.2267 130.264L84.5556 133.644L65.5604 109.978L60.9012 116.071L72.2267 130.264Z" fill="#BAFE54"/>
<path d="M21.835 25.6836V150.765L36.8896 159.008V109.784V87.1154V33.2817L21.835 25.6836Z" fill="#BAFE54"/>
<path d="M106.919 19.3041L94.1945 14.3423L61.1622 56.291L61.657 77.0452L106.919 19.3041Z" fill="#BAFE54"/>
<path d="M93.8017 135.856L106.847 139.153L73.3012 99.6574L67.9969 107.399L93.8017 135.856Z" fill="#BAFE54"/>
<path d="M42.9102 159.954V33.7969L57.9648 39.944V93.7061L115.27 20.933L127.421 25.6797L82.7322 83.6358L133.872 145.6L114.017 140.368L73.5051 95.8714L57.9648 116.375V167.821L42.9102 159.954Z" fill="#BAFE54"/>
<path d="M219.22 139.602L200.234 109.55H191.614L216.774 75.3046H238.905L215.027 107.57V97.3193L242.865 139.602H219.22ZM173.56 139.602V54.5712H194.759V139.602H173.56ZM279.871 141.931C274.202 141.931 269.154 141.077 264.728 139.369C260.302 137.66 256.536 135.292 253.43 132.263C250.401 129.235 248.071 125.74 246.441 121.78C244.888 117.82 244.111 113.588 244.111 109.084V106.288C244.111 101.629 244.927 97.2805 246.557 93.2425C248.266 89.2045 250.673 85.6713 253.779 82.6428C256.885 79.6144 260.651 77.2459 265.078 75.5376C269.504 73.8292 274.435 72.975 279.871 72.975C285.384 72.975 290.315 73.8292 294.663 75.5376C299.09 77.2459 302.856 79.6144 305.962 82.6428C309.068 85.6713 311.437 89.2045 313.067 93.2425C314.776 97.2805 315.63 101.629 315.63 106.288V109.084C315.63 113.588 314.815 117.82 313.184 121.78C311.631 125.74 309.301 129.235 306.195 132.263C303.167 135.292 299.439 137.66 295.013 139.369C290.587 141.077 285.539 141.931 279.871 141.931ZM279.871 124.226C283.132 124.226 285.811 123.527 287.908 122.13C290.082 120.732 291.713 118.79 292.8 116.306C293.887 113.743 294.431 110.87 294.431 107.686C294.431 104.347 293.848 101.435 292.683 98.95C291.596 96.3875 289.965 94.3685 287.791 92.8931C285.617 91.4177 282.977 90.68 279.871 90.68C276.764 90.68 274.124 91.4177 271.95 92.8931C269.776 94.3685 268.106 96.3875 266.941 98.95C265.854 101.435 265.311 104.347 265.311 107.686C265.311 110.87 265.854 113.743 266.941 116.306C268.028 118.79 269.659 120.732 271.833 122.13C274.008 123.527 276.687 124.226 279.871 124.226ZM328.401 139.602V74.8387C328.401 67.3063 330.575 61.7153 334.924 58.0656C339.272 54.3382 345.717 52.4745 354.259 52.4745H360.316V68.0828H353.793C351.93 68.0828 350.493 68.5876 349.484 69.5971C348.474 70.6066 347.969 72.0432 347.969 73.9068V139.602H328.401ZM321.412 91.3788V76.0035H360.316V91.3788H321.412ZM371.964 139.602V75.3046H393.164V139.602H371.964ZM364.976 90.68V75.3046H393.164V90.68H364.976ZM380.7 70.1795C376.818 70.1795 373.944 69.2088 372.081 67.2675C370.295 65.2485 369.402 62.6859 369.402 59.5798C369.402 56.4737 370.295 53.9499 372.081 52.0086C373.944 49.9896 376.779 48.9801 380.584 48.9801C384.467 48.9801 387.301 49.9896 389.087 52.0086C390.873 53.9499 391.766 56.4737 391.766 59.5798C391.766 62.6859 390.873 65.2485 389.087 67.2675C387.301 69.2088 384.505 70.1795 380.7 70.1795Z" fill="white"/>
</svg>
