<svg width="311" height="372" viewBox="0 0 311 372" fill="none" xmlns="http://www.w3.org/2000/svg">
<path d="M0.0234375 18.027V307.368L35.0842 326.858V37.6829L0.0234375 18.027Z" fill="#BAFE54"/>
<path d="M199.177 11.6971L168.541 0L123.889 61.17L140.492 68.1662V85.3234L199.177 11.6971Z" fill="#BAFE54"/>
<path d="M166.458 284.714L195.171 292.571L150.933 237.573L140.082 251.732L166.458 284.714Z" fill="#BAFE54"/>
<path d="M49.0993 41.6856V332.36L84.16 351.516V59.3426L49.0993 41.6856Z" fill="#BAFE54"/>
<path d="M247.251 26.8604L217.617 15.3298L140.688 112.813L141.841 161.043L247.251 26.8604Z" fill="#BAFE54"/>
<path d="M216.702 297.712L247.084 305.374L168.959 213.591L156.606 231.582L216.702 297.712Z" fill="#BAFE54"/>
<path d="M98.1827 353.717V60.5444L133.243 74.8295V199.766L266.701 30.6502L294.999 41.681L190.924 176.364L310.023 320.362L263.782 308.202L169.435 204.798L133.243 252.445V372L98.1827 353.717Z" fill="#BAFE54"/>
</svg>
